<svg version="1.1" xmlns="http://www.w3.org/2000/svg" xmlns:xlink="http://www.w3.org/1999/xlink" width="1142.1869158878505" height="490"><defs/><g transform="translate(0,0)"><g><rect fill="#FFFFFF" stroke="none" x="0" y="0" width="1142.1869158878505" height="490"/></g><g transform="translate(0,0) matrix(1,0,0,1,100,100)"><g><g transform="translate(0,0) scale(1,3.7)"><g><path fill="#FFFFFF" stroke="none" d="M 0 0 L 100 0 Q 100 0 100 0 L 100 100 Q 100 100 100 100 L 0 100 Q 0 100 0 100 L 0 0 Q 0 0 0 0 Z"/><g transform="scale(1,0.27027027027027023)"><path fill="none" stroke="none" d="M 0 0 L 100 0 Q 100 0 100 0 L 100 370 Q 100 370 100 370 L 0 370 Q 0 370 0 370 L 0 0 Q 0 0 0 0 Z"/><path fill="none" stroke="#333333" d="M 0 0 M 0 0 L 100 0 Q 100 0 100 0 L 100 370 Q 100 370 100 370 L 0 370 Q 0 370 0 370 L 0 0 Q 0 0 0 0 Z" stroke-miterlimit="10" stroke-width="2"/></g></g></g></g></g><g transform="scale(1,1) matrix(1,0,0,1,102,100) translate(8,178)"><text fill="#000000" stroke="none" font-family="Arial" font-size="12px" font-style="normal" font-weight="normal" text-decoration="none" x="6" y="11">Kategorien</text></g><g transform="translate(0,0) matrix(1,0,0,1,100,0)"><g><g transform="translate(0,0) scale(3.7700000000000005,0.6)"><g><path fill="#FFFFFF" stroke="none" d="M 0 0 L 100 0 Q 100 0 100 0 L 100 100 Q 100 100 100 100 L 0 100 Q 0 100 0 100 L 0 0 Q 0 0 0 0 Z"/><g transform="scale(0.2652519893899204,1.6666666666666667)"><path fill="none" stroke="none" d="M 0 0 L 377.00000000000006 0 Q 377.00000000000006 0 377.00000000000006 0 L 377.00000000000006 60 Q 377.00000000000006 60 377.00000000000006 60 L 0 60 Q 0 60 0 60 L 0 0 Q 0 0 0 0 Z"/><path fill="none" stroke="#333333" d="M 0 0 M 0 0 L 377.00000000000006 0 Q 377.00000000000006 0 377.00000000000006 0 L 377.00000000000006 60 Q 377.00000000000006 60 377.00000000000006 60 L 0 60 Q 0 60 0 60 L 0 0 Q 0 0 0 0 Z" stroke-miterlimit="10" stroke-width="2"/></g></g></g></g></g><g transform="scale(1,1) matrix(1,0,0,1,100.7570281124498,0) translate(8,23)"><text fill="#000000" stroke="none" font-family="Arial" font-size="12px" font-style="normal" font-weight="normal" text-decoration="none" x="164.74297188755057" y="11">Logo</text></g><g transform="translate(0,0) matrix(1,0,0,1,996,3)"><g><g transform="translate(0,0) scale(1,4.669999999999999)"><g><path fill="#FFFFFF" stroke="none" d="M 0 0 L 100 0 Q 100 0 100 0 L 100 100 Q 100 100 100 100 L 0 100 Q 0 100 0 100 L 0 0 Q 0 0 0 0 Z"/><g transform="scale(1,0.21413276231263387)"><path fill="none" stroke="none" d="M 0 0 L 100 0 Q 100 0 100 0 L 100 466.9999999999999 Q 100 466.9999999999999 100 466.9999999999999 L 0 466.9999999999999 Q 0 466.9999999999999 0 466.9999999999999 L 0 0 Q 0 0 0 0 Z"/><path fill="none" stroke="#333333" d="M 0 0 M 0 0 L 100 0 Q 100 0 100 0 L 100 466.9999999999999 Q 100 466.9999999999999 100 466.9999999999999 L 0 466.9999999999999 Q 0 466.9999999999999 0 466.9999999999999 L 0 0 Q 0 0 0 0 Z" stroke-miterlimit="10" stroke-width="2"/></g></g></g></g></g><g transform="scale(1,1) matrix(1,0,0,1,998,3) translate(8,212.49999999999997)"><text fill="#000000" stroke="none" font-family="Arial" font-size="12px" font-style="normal" font-weight="normal" text-decoration="none" x="16" y="11">Kunden</text><text fill="#000000" stroke="none" font-family="Arial" font-size="12px" font-style="normal" font-weight="normal" text-decoration="none" x="15.5" y="25">details, </text><text fill="#000000" stroke="none" font-family="Arial" font-size="12px" font-style="normal" font-weight="normal" text-decoration="none" x="6" y="39">Warenkorb</text></g><g transform="translate(0,0) matrix(1,0,0,1,220,100)"><g><g transform="translate(0,0) scale(7.6,3.7)"><g><path fill="#FFFFFF" stroke="none" d="M 0 0 L 100 0 Q 100 0 100 0 L 100 100 Q 100 100 100 100 L 0 100 Q 0 100 0 100 L 0 0 Q 0 0 0 0 Z"/><g transform="scale(0.13157894736842105,0.27027027027027023)"><path fill="none" stroke="none" d="M 0 0 L 760 0 Q 760 0 760 0 L 760 370 Q 760 370 760 370 L 0 370 Q 0 370 0 370 L 0 0 Q 0 0 0 0 Z"/><path fill="none" stroke="#333333" d="M 0 0 M 0 0 L 760 0 Q 760 0 760 0 L 760 370 Q 760 370 760 370 L 0 370 Q 0 370 0 370 L 0 0 Q 0 0 0 0 Z" stroke-miterlimit="10" stroke-width="2"/></g></g></g></g></g><g transform="scale(1,1) matrix(1,0,0,1,222,100) translate(8,178)"><text fill="#000000" stroke="none" font-family="Arial" font-size="12px" font-style="normal" font-weight="normal" text-decoration="none" x="352" y="11">Inhalt</text></g><g transform="translate(0,0) matrix(1,0,0,1,490.6666666666667,0.3333333333333357)"><g><g transform="translate(0,0) scale(4.88,0.57)"><g><path fill="#FFFFFF" stroke="none" d="M 0 0 L 100 0 Q 100 0 100 0 L 100 100 Q 100 100 100 100 L 0 100 Q 0 100 0 100 L 0 0 Q 0 0 0 0 Z"/><g transform="scale(0.20491803278688525,1.7543859649122808)"><path fill="none" stroke="none" d="M 0 0 L 488 0 Q 488 0 488 0 L 488 56.99999999999999 Q 488 56.99999999999999 488 56.99999999999999 L 0 56.99999999999999 Q 0 56.99999999999999 0 56.99999999999999 L 0 0 Q 0 0 0 0 Z"/><path fill="none" stroke="#333333" d="M 0 0 M 0 0 L 488 0 Q 488 0 488 0 L 488 56.99999999999999 Q 488 56.99999999999999 488 56.99999999999999 L 0 56.99999999999999 Q 0 56.99999999999999 0 56.99999999999999 L 0 0 Q 0 0 0 0 Z" stroke-miterlimit="10" stroke-width="2"/></g></g></g></g></g><g transform="scale(1,1) matrix(1,0,0,1,492.1869158878505,0.3333333333333357) translate(8,21.5)"><text fill="#000000" stroke="none" font-family="Arial" font-size="12px" font-style="normal" font-weight="normal" text-decoration="none" x="215.97975077881622" y="11">Suche</text></g><g transform="translate(0,0) matrix(1,0,0,1,100,70)"><g><g transform="translate(0,0) scale(8.786666666666667,0.15)"><g><path fill="#FFFFFF" stroke="none" d="M 0 0 L 100 0 Q 100 0 100 0 L 100 100 Q 100 100 100 100 L 0 100 Q 0 100 0 100 L 0 0 Q 0 0 0 0 Z"/><g transform="scale(0.11380880121396054,6.666666666666667)"><path fill="none" stroke="none" d="M 0 0 L 878.6666666666667 0 Q 878.6666666666667 0 878.6666666666667 0 L 878.6666666666667 15 Q 878.6666666666667 15 878.6666666666667 15 L 0 15 Q 0 15 0 15 L 0 0 Q 0 0 0 0 Z"/><path fill="none" stroke="#333333" d="M 0 0 M 0 0 L 878.6666666666667 0 Q 878.6666666666667 0 878.6666666666667 0 L 878.6666666666667 15 Q 878.6666666666667 15 878.6666666666667 15 L 0 15 Q 0 15 0 15 L 0 0 Q 0 0 0 0 Z" stroke-miterlimit="10" stroke-width="2"/></g></g></g></g></g><g transform="scale(1,1) matrix(1,0,0,1,102,70) translate(8,0.5)"><text fill="#000000" stroke="none" font-family="Arial" font-size="12px" font-style="normal" font-weight="normal" text-decoration="none" x="387.33333333333337" y="11">Breadcrumbs</text></g></g></svg>